<?xml version="1.0" encoding="utf-8"?>
<!-- Generator: Adobe Illustrator 23.1.1, SVG Export Plug-In . SVG Version: 6.00 Build 0)  -->
<svg version="1.1" id="Layer_1" xmlns="http://www.w3.org/2000/svg" xmlns:xlink="http://www.w3.org/1999/xlink" x="0px" y="0px"
	 viewBox="0 0 192 192" style="enable-background:new 0 0 192 192;" xml:space="preserve">
<style type="text/css">
	.st0{fill:url(#SVGID_1_);}
	.st1{fill:#FFFFFF;}
</style>
<linearGradient id="SVGID_1_" gradientUnits="userSpaceOnUse" x1="145.0065" y1="207.0881" x2="24.5608" y2="-1.5299">
	<stop  offset="0" style="stop-color:#375FE9"/>
	<stop  offset="1" style="stop-color:#5376F3"/>
</linearGradient>
<path class="st0" d="M178,67c-24.9,0-45-19.5-45-43.5c0-7,1.7-13.6,4.8-19.5H19C10.7,4,4,10.7,4,19v154.8c0,8.3,6.7,15,15,15h153.6
	c8.3,0,15-6.7,15-15V66C184.5,66.6,181.3,67,178,67z"/>
<path class="st1" d="M119.8,39l-61.9,66.8c-2.8,3-7.5,3.2-10.6,0.4l-0.8-0.7c-3-2.8-3.2-7.5-0.4-10.6l61.9-66.8
	c2.8-3,7.5-3.2,10.6-0.4l0.8,0.7C122.4,31.3,122.6,36,119.8,39z"/>
<path class="st1" d="M133.6,75.1l-83.5,90.1c-2.8,3-7.5,3.2-10.6,0.4l-0.8-0.7c-3-2.8-3.2-7.5-0.4-10.6l83.5-90.1
	c2.8-3,7.5-3.2,10.6-0.4l0.8,0.7C136.2,67.3,136.4,72.1,133.6,75.1z"/>
<path class="st1" d="M166.6,91.1l-34.1,36.8c-2.8,3-7.5,3.2-10.5,0.4l-0.9-0.8c-3-2.8-3.2-7.5-0.4-10.5l34.1-36.8
	c2.8-3,7.5-3.2,10.5-0.4l0.9,0.8C169.2,83.4,169.4,88,166.6,91.1z"/>
</svg>
