<?xml version="1.0" encoding="utf-8"?>
<!-- Generator: Adobe Illustrator 23.1.1, SVG Export Plug-In . SVG Version: 6.00 Build 0)  -->
<svg version="1.1" id="Layer_1" xmlns="http://www.w3.org/2000/svg" xmlns:xlink="http://www.w3.org/1999/xlink" x="0px" y="0px"
	 viewBox="0 0 150 150" style="enable-background:new 0 0 150 150;" xml:space="preserve">
<style type="text/css">
	.st0{fill:#FFFFFF;}
</style>
<g>
	<path class="st0" d="M73.5,39C92,39,107,54,107,72.5S92,106,73.5,106S40,91,40,72.5S55,39,73.5,39 M73.5,23
		C46.2,23,24,45.2,24,72.5S46.2,122,73.5,122S123,99.8,123,72.5S100.8,23,73.5,23L73.5,23z"/>
</g>
<g>
	<path class="st0" d="M32.4,52.1L11.7,83.9c-0.8,1.3,0,2.9,1.5,3l39,1.5c1.5,0.1,2.5-1.5,1.8-2.8L35.7,52.2
		C35,50.9,33.2,50.8,32.4,52.1z"/>
</g>
</svg>
