<?xml version="1.0" encoding="utf-8"?>
<!-- Generator: Adobe Illustrator 23.1.1, SVG Export Plug-In . SVG Version: 6.00 Build 0)  -->
<svg version="1.1" id="Layer_1" xmlns="http://www.w3.org/2000/svg" xmlns:xlink="http://www.w3.org/1999/xlink" x="0px" y="0px"
	 viewBox="0 0 869.4 84.6" style="enable-background:new 0 0 869.4 84.6;" xml:space="preserve">
<style type="text/css">
	.st0{enable-background:new    ;}
	.st1{fill:url(#SVGID_1_);}
	.st2{fill:url(#SVGID_2_);}
	.st3{fill:url(#SVGID_3_);}
	.st4{fill:url(#SVGID_4_);}
	.st5{fill:url(#SVGID_5_);}
	.st6{fill:#2C3233;}
	.st7{font-family:'Poppins-LightItalic';}
	.st8{font-size:96.6046px;}
	.st9{letter-spacing:40.8;}
	.st10{fill:#0065FF;}
</style>
<g class="st0">
	<g>
		
			<linearGradient id="SVGID_1_" gradientUnits="userSpaceOnUse" x1="124.2" y1="42.2" x2="475.7517" y2="42.2" gradientTransform="matrix(1 0 0 -1 0 86)">
			<stop  offset="0" style="stop-color:#0065E5"/>
			<stop  offset="1" style="stop-color:#6300BF"/>
		</linearGradient>
		<path class="st1" d="M166.9,7.3c17.9,0,25,10.3,22.8,23c-1.6,9.1-8.1,17.8-19.9,21.1l11.7,28.9h-20.1l-10.3-27.5h-4.3L142,80.3
			h-17.8l12.9-72.9h29.8V7.3z M163.3,21.9h-11L149,40.2h11c6.6,0,10.4-3.4,11.4-9.1C172.5,25.5,169.9,21.9,163.3,21.9z"/>
		
			<linearGradient id="SVGID_2_" gradientUnits="userSpaceOnUse" x1="124.21" y1="42.15" x2="475.7617" y2="42.15" gradientTransform="matrix(1 0 0 -1 0 86)">
			<stop  offset="0" style="stop-color:#0065E5"/>
			<stop  offset="1" style="stop-color:#6300BF"/>
		</linearGradient>
		<path class="st2" d="M239.6,67.4h-27.2l-6.6,12.9h-18.6l39.3-72.9H247l13.5,72.9h-18.8L239.6,67.4z M233.3,26.9l-13.9,27h18.2
			L233.3,26.9z"/>
		
			<linearGradient id="SVGID_3_" gradientUnits="userSpaceOnUse" x1="124.21" y1="42.15" x2="475.7617" y2="42.15" gradientTransform="matrix(1 0 0 -1 0 86)">
			<stop  offset="0" style="stop-color:#0065E5"/>
			<stop  offset="1" style="stop-color:#6300BF"/>
		</linearGradient>
		<path class="st3" d="M302,54.1h-11l-4.7,26.2h-17.8l12.9-72.9h28.8c17.9,0,25,10.1,22.6,23.5C330.8,42.9,320.6,54.1,302,54.1z
			 M303,40.2c7.2,0,10.7-3.7,11.7-9.4s-1.4-9.4-8.4-9.4h-9.7l-3.2,18.7L303,40.2L303,40.2z"/>
		
			<linearGradient id="SVGID_4_" gradientUnits="userSpaceOnUse" x1="124.21" y1="42.2" x2="475.7617" y2="42.2" gradientTransform="matrix(1 0 0 -1 0 86)">
			<stop  offset="0" style="stop-color:#0065E5"/>
			<stop  offset="1" style="stop-color:#6300BF"/>
		</linearGradient>
		<path class="st4" d="M340.5,7.3h20.2l8.7,30.4l19.4-30.4h19.9L375,56.2l-4.4,24.1h-17.8l4.4-24.1L340.5,7.3z"/>
		
			<linearGradient id="SVGID_5_" gradientUnits="userSpaceOnUse" x1="124.21" y1="42.2" x2="475.7617" y2="42.2" gradientTransform="matrix(1 0 0 -1 0 86)">
			<stop  offset="0" style="stop-color:#0065E5"/>
			<stop  offset="1" style="stop-color:#6300BF"/>
		</linearGradient>
		<path class="st5" d="M475.1,43.8c-3.8,21.6-21.4,36.5-44.7,36.5h-27.3l12.9-73h27.3C466.5,7.3,478.9,22.1,475.1,43.8z M432,65.1
			c13.4,0,22.8-7.9,25-21.3c2.4-13.4-4.1-21.3-17.5-21.3H431l-7.5,42.6H432z"/>
	</g>
</g>
<text transform="matrix(0.9553 0 0 1 511.623 68.48)" class="st6 st7 st8 st9">zero</text>
<path class="st10" d="M120.7,23.5h-80c-2.8,0-5-2.2-5-5l0,0c0-2.8,2.2-5,5-5h80c2.8,0,5,2.2,5,5l0,0
	C125.7,21.3,123.5,23.5,120.7,23.5z"/>
<path class="st10" d="M115.9,49.4h-105c-2.8,0-5-2.2-5-5l0,0c0-2.8,2.2-5,5-5h105c2.8,0,5,2.2,5,5l0,0
	C120.9,47.2,118.7,49.4,115.9,49.4z"/>
<path class="st10" d="M110.1,75.6h-59c-2.8,0-5-2.2-5-5l0,0c0-2.8,2.2-5,5-5h59c2.8,0,5,2.2,5,5l0,0
	C115.1,73.4,112.9,75.6,110.1,75.6z"/>
</svg>
