<?xml version="1.0" encoding="utf-8"?>
<!-- Generator: Adobe Illustrator 23.1.1, SVG Export Plug-In . SVG Version: 6.00 Build 0)  -->
<svg version="1.1" id="Layer_1" xmlns="http://www.w3.org/2000/svg" xmlns:xlink="http://www.w3.org/1999/xlink" x="0px" y="0px"
	 viewBox="0 0 845 108" style="enable-background:new 0 0 845 108;" xml:space="preserve">
<style type="text/css">
	.st0{fill:#0065E5;}
	.st1{font-family:'Poppins-Bold';}
	.st2{font-size:103.8977px;}
	.st3{fill:#333333;}
	.st4{font-family:'Poppins-Light';}
	.st5{letter-spacing:46;}
	.st6{fill:#0065FF;}
</style>
<text transform="matrix(1 0 0 1 126.8047 78.3672)" class="st0 st1 st2">rapyd</text>
<text transform="matrix(1 0 0 1 482.5686 75.0435)" class="st3 st4 st2 st5">zero</text>
<path class="st6" d="M116,31H36c-2.8,0-5-2.2-5-5v0c0-2.8,2.2-5,5-5h80c2.8,0,5,2.2,5,5v0C121,28.8,118.8,31,116,31z"/>
<path class="st6" d="M115,55H10c-2.8,0-5-2.2-5-5v0c0-2.8,2.2-5,5-5h105c2.8,0,5,2.2,5,5v0C120,52.8,117.8,55,115,55z"/>
<path class="st6" d="M114,78H55c-2.8,0-5-2.2-5-5v0c0-2.8,2.2-5,5-5h59c2.8,0,5,2.2,5,5v0C119,75.8,116.8,78,114,78z"/>
</svg>
